FFmpeg version SVN-r25716, Copyright (c) 2000-2010 the FFmpeg developers  built on Nov 10 2010 12:23:18 with gcc 4.1.2 20080704 (Red Hat 4.1.2-48)  configuration: --enable-libmp3lame --enable-shared --disable-mmx --arch=x86_64  libavutil     50.33. 0 / 50.33. 0  libavcore      0.12. 1 /  0.12. 1  libavcodec    52.94. 4 / 52.94. 4  libavformat   52.84. 0 / 52.84. 0  libavdevice   52. 2. 2 / 52. 2. 2  libavfilter    1.59. 0 /  1.59. 0  libswscale     0.12. 0 /  0.12. 0Input #0, mov,mp4,m4a,3gp,3g2,mj2, from '/RAID10/data/converted_video_files/26314.mov':  Metadata:    major_brand     : qt      minor_version   : 537199360    compatible_brands: qt    Duration: 00:00:40.37, start: 0.000000, bitrate: 1849 kb/s    Stream #0.0(eng): Video: h264, yuv420p, 512x512, 1848 kb/s, 24 fps, 24 tbr, 24 tbn, 48 tbc[buffer @ 0x1572bbd0] w:512 h:512 pixfmt:yuv420pOutput #0, flv, to '/RAID10/data/converted_video_files/26314.flv':  Metadata:    encoder         : Lavf52.84.0    Stream #0.0(eng): Video: flv, yuv420p, 512x512, q=2-31, 600 kb/s, 1k tbn, 24 tbcStream mapping:  Stream #0.0 -> #0.0Press [q] to stop encodingframe=   37 fps=  0 q=24.5 size=     448kB time=1.54 bitrate=2381.9kbits/s    frame=   62 fps= 58 q=29.5 size=     501kB time=2.58 bitrate=1589.7kbits/s    frame=   99 fps= 63 q=26.5 size=     589kB time=4.12 bitrate=1169.5kbits/s    frame=  135 fps= 65 q=21.5 size=     677kB time=5.62 bitrate= 986.6kbits/s    frame=  168 fps= 65 q=25.4 size=     759kB time=7.00 bitrate= 888.0kbits/s    frame=  189 fps= 61 q=25.3 size=     825kB time=7.88 bitrate= 858.4kbits/s    frame=  210 fps= 58 q=24.4 size=     889kB time=8.75 bitrate= 831.9kbits/s    frame=  231 fps= 56 q=23.6 size=     953kB time=9.62 bitrate= 811.3kbits/s    frame=  262 fps= 57 q=20.4 size=    1028kB time=10.92 bitrate= 771.3kbits/s    frame=  298 fps= 58 q=24.6 size=    1137kB time=12.42 bitrate= 750.1kbits/s    frame=  335 fps= 59 q=24.5 size=    1247kB time=13.96 bitrate= 731.8kbits/s    frame=  354 fps= 58 q=22.9 size=    1311kB time=14.75 bitrate= 728.0kbits/s    frame=  374 fps= 56 q=21.9 size=    1371kB time=15.58 bitrate= 721.0kbits/s    frame=  402 fps= 56 q=23.7 size=    1447kB time=16.75 bitrate= 707.8kbits/s    frame=  441 fps= 58 q=23.5 size=    1555kB time=18.38 bitrate= 693.3kbits/s    frame=  491 fps= 60 q=21.8 size=    1706kB time=20.46 bitrate= 683.3kbits/s    frame=  549 fps= 64 q=20.8 size=    1869kB time=22.88 bitrate= 669.4kbits/s    frame=  596 fps= 65 q=21.6 size=    2011kB time=24.83 bitrate= 663.3kbits/s    frame=  627 fps= 65 q=21.8 size=    2107kB time=26.12 bitrate= 660.8kbits/s    frame=  663 fps= 65 q=22.1 size=    2220kB time=27.62 bitrate= 658.2kbits/s    frame=  706 fps= 66 q=18.6 size=    2363kB time=29.42 bitrate= 658.2kbits/s    frame=  756 fps= 68 q=21.3 size=    2507kB time=31.50 bitrate= 651.9kbits/s    frame=  797 fps= 68 q=20.6 size=    2621kB time=33.21 bitrate= 646.5kbits/s    frame=  836 fps= 69 q=20.9 size=    2738kB time=34.83 bitrate= 643.9kbits/s    frame=  871 fps= 69 q=21.6 size=    2850kB time=36.29 bitrate= 643.4kbits/s    frame=  918 fps= 69 q=20.5 size=    2988kB time=38.25 bitrate= 639.9kbits/s    frame=  969 fps= 71 q=21.4 Lsize=    3142kB time=40.38 bitrate= 637.4kbits/s    video:3126kB audio:0kB global headers:0kB muxing overhead 0.490862%